<svg xmlns="http://www.w3.org/2000/svg" width="26" height="26" viewBox="0 0 26 26"><defs><style>.a{fill:rgba(255,255,255,0);}.b{fill:#fff;}</style></defs><g transform="translate(-956 -1040)"><rect class="a" width="26" height="26" transform="translate(956 1040)"/><path class="b" d="M12.5,6.4a1.086,1.086,0,0,0-1.071,1.1V9.7a1.072,1.072,0,1,0,2.143,0V7.5A1.086,1.086,0,0,0,12.5,6.4Zm0-4.4A7.6,7.6,0,0,0,5,9.7v6.6A7.6,7.6,0,0,0,12.5,24,7.6,7.6,0,0,0,20,16.3V9.7A7.6,7.6,0,0,0,12.5,2Zm5.357,14.3A5.43,5.43,0,0,1,12.5,21.8a5.43,5.43,0,0,1-5.357-5.5V9.7A5.43,5.43,0,0,1,12.5,4.2a5.43,5.43,0,0,1,5.357,5.5Z" transform="translate(956.5 1040)"/></g></svg>